# xmcd
#
# Track frame offsets: 
#        150
#        14618
#        31124
#        49597
#        68593
#        88447
#        112786
#        134317
#        156391
#        170473
#        190445
#        208649
#        226034
#        241341
#        259588
#
# Disc length: 3692 seconds
#
# Revision: 0
# Processed by: cddbd v1.5.2PL0 Copyright (c) Steve Scherf et al.
# Submitted via: ExactAudioCopy v1.0b4
#
DISCID=c30e6a0f
DTITLE=Shawn Pittman and The Moeller Bros - Triple Troubles
DYEAR=2010
DGENRE=Blues
TTITLE0=Hand It Off
TTITLE1=Tell Me
TTITLE2=Hell Or High Water
TTITLE3=Be My Queen
TTITLE4=24 Hours Aint Enough
TTITLE5=The Judge Should Know
TTITLE6=My Home Is A Prison
TTITLE7=Movin'
TTITLE8=I've Had Enough
TTITLE9=One Thing On My Mind
TTITLE10=I Got A Call
TTITLE11=Train Blues
TTITLE12=Too Much Noise
TTITLE13=Step By Step
TTITLE14=Do Yo Best and Can' Da Rest
EXTD=
EXTT0=
EXTT1=
EXTT2=
EXTT3=
EXTT4=
EXTT5=
EXTT6=
EXTT7=
EXTT8=
EXTT9=
EXTT10=
EXTT11=
EXTT12=
EXTT13=
EXTT14=
PLAYORDER=
